<svg width="240" height="240" viewBox="0 0 240 240" fill="none" xmlns="http://www.w3.org/2000/svg">
  <rect width="240" height="240" rx="120" fill="#FBF4EA"/>
  <circle cx="120" cy="120" r="95" stroke="#C7936C" stroke-opacity="0.45" stroke-width="1.5"/>
  <circle cx="120" cy="120" r="78" stroke="#8B5E3C" stroke-opacity="0.18" stroke-width="1"/>
  <path d="M74 146C86.5 133.333 95.3333 111.333 100.5 80H117L103 160H88.5L95.5 117C91.1667 129 84 139.333 74 148V146Z" fill="#8B5E3C"/>
  <path d="M122 160L136 80H150.5L136.5 160H122ZM141 145.5C157 132.833 165 111 165 80H178.5C178.5 111.833 168.167 135.167 147.5 150L141 145.5Z" fill="#8B5E3C"/>
  <path d="M48 120C64 118.5 74.5 109 79.5 91.5" stroke="#C7936C" stroke-width="1.5" stroke-linecap="round"/>
  <path d="M192 120C176 118.5 165.5 109 160.5 91.5" stroke="#C7936C" stroke-width="1.5" stroke-linecap="round"/>
  <path d="M70 181C89.5 170.5 103 169 120 169C137 169 150.5 170.5 170 181" stroke="#8D7768" stroke-opacity="0.7" stroke-width="1.5" stroke-linecap="round"/>
</svg>