<svg width="640" height="320" viewBox="0 0 640 320" fill="none" xmlns="http://www.w3.org/2000/svg">
  <rect width="640" height="320" rx="32" fill="#F4E7D3"/>
  <path d="M320 48C350.4 48 375 72.6 375 103C375 133.4 350.4 158 320 158C289.6 158 265 133.4 265 103C265 72.6 289.6 48 320 48Z" stroke="#7A4E2D" stroke-width="8"/>
  <path d="M320 86L336.971 103L320 120L303.029 103L320 86Z" fill="#B8864E"/>
  <path d="M184 103H456" stroke="#7A4E2D" stroke-width="6" stroke-linecap="round" stroke-dasharray="1 18"/>
  <path d="M320 166V246" stroke="#7A4E2D" stroke-width="6" stroke-linecap="round" stroke-dasharray="1 16"/>
  <path d="M128 102.999C160.5 91.4993 182.5 70.4993 194.5 39.9993C206.5 70.4993 228.5 91.4993 261 102.999C228.5 114.499 206.5 135.499 194.5 165.999C182.5 135.499 160.5 114.499 128 102.999Z" stroke="#A56B43" stroke-width="6"/>
  <path d="M379 102.999C411.5 91.4993 433.5 70.4993 445.5 39.9993C457.5 70.4993 479.5 91.4993 512 102.999C479.5 114.499 457.5 135.499 445.5 165.999C433.5 135.499 411.5 114.499 379 102.999Z" stroke="#A56B43" stroke-width="6"/>
  <path d="M192 223C215.5 214.5 231 199.5 240 176C249 199.5 264.5 214.5 288 223C264.5 231.5 249 246.5 240 270C231 246.5 215.5 231.5 192 223Z" fill="#D6AA67" fill-opacity="0.55" stroke="#7A4E2D" stroke-width="5"/>
  <path d="M352 223C375.5 214.5 391 199.5 400 176C409 199.5 424.5 214.5 448 223C424.5 231.5 409 246.5 400 270C391 246.5 375.5 231.5 352 223Z" fill="#D6AA67" fill-opacity="0.55" stroke="#7A4E2D" stroke-width="5"/>
  <circle cx="240" cy="223" r="10" fill="#7A4E2D"/>
  <circle cx="400" cy="223" r="10" fill="#7A4E2D"/>
  <path d="M96 280C134 250.667 172 250.667 210 280" stroke="#7A4E2D" stroke-width="6" stroke-linecap="round"/>
  <path d="M430 280C468 250.667 506 250.667 544 280" stroke="#7A4E2D" stroke-width="6" stroke-linecap="round"/>
</svg>
